<svg xmlns="http://www.w3.org/2000/svg" width="504" height="309" viewBox="0 0 504 309">
  <defs>
    <linearGradient id="no-task-a" x1="50%" x2="50%" y1="33.114%" y2="0%">
      <stop offset="0%" stop-color="#2D2D2D" stop-opacity="0"/>
      <stop offset="100%" stop-color="#FFF" stop-opacity=".216"/>
    </linearGradient>
    <linearGradient id="no-task-b" x1="54.257%" x2="54.257%" y1="27.941%" y2="0%">
      <stop offset="0%" stop-color="#6D6D6D" stop-opacity="0"/>
      <stop offset="100%" stop-color="#FFF" stop-opacity=".216"/>
    </linearGradient>
    <linearGradient id="no-task-c" x1="67.64%" x2="67.64%" y1="-1.183%" y2="87.046%">
      <stop offset="0%" stop-color="#BBB"/>
      <stop offset="100%" stop-color="#1B1B1B"/>
    </linearGradient>
    <linearGradient id="no-task-d" x1="72.034%" x2="62.937%" y1=".549%" y2="70.566%">
      <stop offset="0%" stop-color="#5B5AEA"/>
      <stop offset="100%" stop-color="#E7D1AF" stop-opacity="0"/>
    </linearGradient>
  </defs>
  <g fill="none" fill-rule="evenodd" transform="matrix(-1 0 0 1 523 -26)">
    <path fill="url(#no-task-a)" d="M405.205443,457 C474.127574,457 530,416.257912 530,366 C530,315.742088 474.127574,275 405.205443,275 C357.777319,275 316.351719,308.5 273.422392,320 C230.493064,331.5 280.410887,350.326604 280.410887,366 C280.410887,416.257912 336.283313,457 405.205443,457 Z"/>
    <path fill="url(#no-task-b)" d="M187.396666,506 C290.892986,506 374.793331,444.886868 374.793331,369.5 C374.793331,343.379708 438.258336,300 374.793331,288 C311.328327,276 255.033239,233 187.396666,233 C83.9003451,233 0,294.113132 0,369.5 C0,444.886868 83.9003451,506 187.396666,506 Z"/>
    <g transform="translate(251)">
      <g transform="rotate(-9 131.07 -174.485)">
        <path fill="#4C4C4C" d="M62.7987624,55.0107658 C81.722385,55.0107658 97.0630122,48.3331613 97.0630122,40.0959187 C97.0630122,31.8586761 81.8337958,20.3734081 62.9101731,20.3734081 C43.9865505,20.3734081 28.5345125,31.8586761 28.5345125,40.0959187 C28.5345125,48.3331613 43.8751397,55.0107658 62.7987624,55.0107658 Z" transform="rotate(28 62.799 37.692)"/>
        <path fill="#6C6971" stroke="#1B1B1B" stroke-width="1.5" d="M58.7849596,61.2042558 C89.7511315,61.2042558 114.854174,54.0572115 114.854174,45.2408856 C114.854174,36.4245597 89.9334414,24.7704052 58.9672695,24.7704052 C28.0010976,24.7704052 2.71574548,36.4245597 2.71574548,45.2408856 C2.71574548,54.0572115 27.8187877,61.2042558 58.7849596,61.2042558 Z" transform="rotate(28 58.785 42.987)"/>
        <ellipse cx="57.554" cy="45.301" fill="#3E3E3E" stroke="#1B1B1B" stroke-width="1.5" rx="56.069" ry="15.595" transform="rotate(28 57.554 45.301)"/>
        <path fill="#1C1C1C" d="M54.0341689,61.034986 C71.9305201,61.034986 86.4383793,57.5754212 86.4383793,53.3078316 C86.4383793,49.0402421 71.9045985,44.0956263 54.0082472,44.0956263 C36.111896,44.0956263 21.6299585,49.0402421 21.6299585,53.3078316 C21.6299585,57.5754212 36.1378177,61.034986 54.0341689,61.034986 Z" transform="rotate(28 54.034 52.565)"/>
        <path fill="#5B5AEA" d="M24.6356751,65.6103894 C28.977282,67.3406868 43.8486711,68.2460037 51.2115661,68.2460037 C62.9314122,68.2460037 76.8638753,67.0866357 80.0696418,63.5616001 C79.1980224,61.9223221 77.8034291,59.2994789 77.4547802,58.6437682 C73.3503403,54.0911274 65.5268862,51.1289038 51.2115661,51.1289038 C36.896246,51.1289038 25.2913861,54.9606971 25.2913861,59.6874537 C25.2799811,59.8311745 24.8971094,62.6181062 24.6356751,65.6103894 Z" opacity=".2" transform="rotate(28 52.353 59.687)"/>
      </g>
      <g transform="rotate(17 -127.302 156.199)">
        <path fill="url(#no-task-c)" d="M0.437855341,122.756063 C6.9305143,103.820174 23.4032209,19.86934 28.722962,7.43976857 C31.2151567,1.85116474 46.1461798,0.442635317 57.1290936,0.606476509 C68.1120075,0.770317701 77.6353158,2.27177407 79.7750096,10.1463265 C82.5994055,20.5407356 100.631664,125.817368 100.631664,125.817368 C100.631664,125.817368 85.4641952,135.806163 51.2553929,136.208574 C17.0465905,136.610985 0.437855341,122.756063 0.437855341,122.756063" opacity=".2"/>
        <path fill="url(#no-task-d)" d="M16.9815633,126.328017 C21.4934522,108.52909 34.184762,14.8688391 37.8589786,3.31978228 C40.6849978,0.698206848 48.1144315,0.373582109 55.897648,0.69820706 C63.6808645,1.02283201 70.9203368,2.51931696 71.1102971,3.61983098 C72.9366421,14.2005606 85.1896902,130.47143 85.1896902,130.47143 C85.1896902,130.47143 71.1622902,134.410059 51.855144,134.426852 C32.5479978,134.443645 16.9815633,126.328017 16.9815633,126.328017" opacity=".5"/>
      </g>
    </g>
    <g fill="#646464" transform="translate(143 190)">
      <polygon points="15.556 17.111 26.444 46.667 3.889 46.667" transform="rotate(-5 15.167 31.889)"/>
      <polygon points="13.909 1.529 25.05 31.084 1.972 31.084" transform="rotate(-5 13.511 16.306)"/>
    </g>
    <g fill="#5D5D5D" opacity=".7" transform="matrix(-1 0 0 1 417 252)">
      <polygon points="7.778 8.556 13.222 23.333 1.944 23.333" transform="rotate(-5 7.583 15.944)"/>
      <polygon points="6.955 .764 12.525 15.542 .986 15.542" transform="rotate(-5 6.756 8.153)"/>
    </g>
    <polygon fill="#6B6B6B" points="7.953 1.395 13.786 23.439 1.703 23.439" opacity=".4" transform="rotate(3 -3911.454 3545.51)"/>
    <polygon fill="#686868" points="10.166 1.324 17.4 38.065 2.415 38.065" transform="scale(-1 1) rotate(3 -4751.022 -7416.36)"/>
  </g>
</svg>
