<svg xmlns="http://www.w3.org/2000/svg" width="24" height="24" viewBox="0 0 24 24">
  <path fill="#9B9B9B" fill-rule="evenodd" d="M3,15 C2.17187086,15 1.46484668,14.7070342 0.87890625,14.1210938 C0.29296582,13.5351533 0,12.8281291 0,12 C0,11.1718709 0.29296582,10.4648467 0.87890625,9.87890625 C1.46484668,9.29296582 2.17187086,9 3,9 C3.82812914,9 4.53515332,9.29296582 5.12109375,9.87890625 C5.70703418,10.4648467 6,11.1718709 6,12 C6,12.8281291 5.70703418,13.5351533 5.12109375,14.1210938 C4.53515332,14.7070342 3.82812914,15 3,15 Z M3,10.5 C2.59374797,10.5 2.24218898,10.648436 1.9453125,10.9453125 C1.64843602,11.242189 1.5,11.593748 1.5,12 C1.5,12.406252 1.64843602,12.757811 1.9453125,13.0546875 C2.24218898,13.351564 2.59374797,13.5 3,13.5 C3.40625203,13.5 3.75781102,13.351564 4.0546875,13.0546875 C4.35156398,12.757811 4.5,12.406252 4.5,12 C4.5,11.593748 4.35156398,11.242189 4.0546875,10.9453125 C3.75781102,10.648436 3.40625203,10.5 3,10.5 Z M12,15 C11.1718709,15 10.4648467,14.7070342 9.87890625,14.1210938 C9.29296582,13.5351533 9,12.8281291 9,12 C9,11.1718709 9.29296582,10.4648467 9.87890625,9.87890625 C10.4648467,9.29296582 11.1718709,9 12,9 C12.8281291,9 13.5351533,9.29296582 14.1210938,9.87890625 C14.7070342,10.4648467 15,11.1718709 15,12 C15,12.8281291 14.7070342,13.5351533 14.1210938,14.1210938 C13.5351533,14.7070342 12.8281291,15 12,15 Z M12,10.5 C11.593748,10.5 11.242189,10.648436 10.9453125,10.9453125 C10.648436,11.242189 10.5,11.593748 10.5,12 C10.5,12.406252 10.648436,12.757811 10.9453125,13.0546875 C11.242189,13.351564 11.593748,13.5 12,13.5 C12.406252,13.5 12.757811,13.351564 13.0546875,13.0546875 C13.351564,12.757811 13.5,12.406252 13.5,12 C13.5,11.593748 13.351564,11.242189 13.0546875,10.9453125 C12.757811,10.648436 12.406252,10.5 12,10.5 Z M21,9 C21.8281291,9 22.5351533,9.29296582 23.1210938,9.87890625 C23.7070342,10.4648467 24,11.1718709 24,12 C24,12.8281291 23.7070342,13.5351533 23.1210938,14.1210938 C22.5351533,14.7070342 21.8281291,15 21,15 C20.1718709,15 19.4648467,14.7070342 18.8789062,14.1210938 C18.2929658,13.5351533 18,12.8281291 18,12 C18,11.1718709 18.2929658,10.4648467 18.8789062,9.87890625 C19.4648467,9.29296582 20.1718709,9 21,9 Z M21,13.5 C21.406252,13.5 21.757811,13.351564 22.0546875,13.0546875 C22.351564,12.757811 22.5,12.406252 22.5,12 C22.5,11.593748 22.351564,11.242189 22.0546875,10.9453125 C21.757811,10.648436 21.406252,10.5 21,10.5 C20.593748,10.5 20.242189,10.648436 19.9453125,10.9453125 C19.648436,11.242189 19.5,11.593748 19.5,12 C19.5,12.406252 19.648436,12.757811 19.9453125,13.0546875 C20.242189,13.351564 20.593748,13.5 21,13.5 Z"/>
</svg>
