<svg width="32" height="32" xmlns="http://www.w3.org/2000/svg">
    <title>Motrix tray icon</title>
    <g fill="none" fill-rule="evenodd">
        <path d="M22 18h4a2 2 0 1 1 0 4h-4a2 2 0 1 1 0-4Z" fill="#28CE42"/>
        <path d="M5.128 0h21.744c1.783 0 2.43.186 3.082.534.652.349 1.163.86 1.512 1.512.348.652.534 1.299.534 3.082V16H0V5.128c0-1.783.186-2.43.534-3.082A3.635 3.635 0 0 1 2.046.534C2.698.186 3.345 0 5.128 0ZM0 24h32v2.872c0 1.783-.186 2.43-.534 3.082a3.635 3.635 0 0 1-1.512 1.512c-.652.348-1.299.534-3.082.534H5.128c-1.783 0-2.43-.186-3.082-.534a3.635 3.635 0 0 1-1.512-1.512C.186 29.302 0 28.655 0 26.872V24Z" fill="#000"/>
    </g>
</svg>
